<svg xmlns="http://www.w3.org/2000/svg" xmlns:xlink="http://www.w3.org/1999/xlink" width="260" height="187" viewBox="0 0 260 187">
  <defs>
    <clipPath id="clip-LOGO">
      <rect width="260" height="187"/>
    </clipPath>
  </defs>
  <g id="LOGO" clip-path="url(#clip-LOGO)">
    <rect width="260" height="187" fill="rgba(255,255,255,0)"/>
    <g id="Group_1" data-name="Group 1" transform="translate(-12.784 -24.898)">
      <g id="httpshawk-clementine-wk54.squarespace.comconfig-_1_" transform="translate(-21.431 504.876)">
        <path id="Path_2" data-name="Path 2" d="M194-430.2v2.9l11.3.6c6.1.4,18.7.7,27.9.7,14.3,0,17.5.3,22,2a24.98,24.98,0,0,1,14,12.3c3,5.9,3.7,19.5,1.3,26.7-2,6.1-8,12.7-14.5,16-7.8,4-11,9.2-7.2,11.7,1.1.6,6.1,7.8,11.2,16,10.1,16,18.3,27.5,22.1,31,4.7,4.3,13.6,7.5,22.4,8.1,8,.5,8.3.4,9-1.9.4-1.3.3-2.5-.2-2.6-4.5-1.5-12.7-8-17.6-13.8-5.4-6.4-23.8-33.3-28.3-41.4-1.9-3.3-1.9-3.4,0-4.5,13.7-8.2,17.9-12.6,21.7-22.5,1.7-4.6,2-7,1.6-13.1-.6-8.9-2.5-13.6-7.4-19.1-9.5-10.5-16-11.9-57.5-11.9H194Z" transform="translate(-134)" fill="#790050"/>
        <path id="Path_3" data-name="Path 3" d="M228.5-373.3c-8.9,2.2-8.7,15.7.2,17.9,4,1,9.5-2.3,10.7-6.3a8.98,8.98,0,0,0-5-10.9,29.52,29.52,0,0,0-3.6-1.3C230.6-373.8,229.6-373.6,228.5-373.3Z" transform="translate(-134)" fill="#790050"/>
      </g>
      <text id="eham" transform="translate(158 181)" fill="#790050" font-size="40" font-family="Andalus"><tspan x="0" y="0">eham</tspan></text>
    </g>
  </g>
</svg>
